<svg width="24" height="24" viewBox="0 0 24 24" fill="none" xmlns="http://www.w3.org/2000/svg">
<path fill-rule="evenodd" clip-rule="evenodd" d="M12 2C6.48 2 2 6.48 2 12C2 17.52 6.48 22 12 22C17.52 22 22 17.52 22 12C22 6.48 17.52 2 12 2ZM7.07 18.28C7.5 17.38 10.12 16.5 12 16.5C13.88 16.5 16.51 17.38 16.93 18.28C15.57 19.36 13.86 20 12 20C10.14 20 8.43 19.36 7.07 18.28ZM18.36 16.83C16.93 15.09 13.46 14.5 12 14.5C10.54 14.5 7.07 15.09 5.64 16.83C4.62 15.49 4 13.82 4 12C4 7.59 7.59 4 12 4C16.41 4 20 7.59 20 12C20 13.82 19.38 15.49 18.36 16.83V16.83ZM12 6C10.06 6 8.5 7.56 8.5 9.5C8.5 11.44 10.06 13 12 13C13.94 13 15.5 11.44 15.5 9.5C15.5 7.56 13.94 6 12 6ZM12 11C11.17 11 10.5 10.33 10.5 9.5C10.5 8.67 11.17 8 12 8C12.83 8 13.5 8.67 13.5 9.5C13.5 10.33 12.83 11 12 11Z" fill="white"/>
<mask id="mask0_1_50" style="mask-type:alpha" maskUnits="userSpaceOnUse" x="1" y="1" width="22" height="22">
<path fill-rule="evenodd" clip-rule="evenodd" d="M12 2C6.48 2 2 6.48 2 12C2 17.52 6.48 22 12 22C17.52 22 22 17.52 22 12C22 6.48 17.52 2 12 2ZM7.07 18.28C7.5 17.38 10.12 16.5 12 16.5C13.88 16.5 16.51 17.38 16.93 18.28C15.57 19.36 13.86 20 12 20C10.14 20 8.43 19.36 7.07 18.28ZM18.36 16.83C16.93 15.09 13.46 14.5 12 14.5C10.54 14.5 7.07 15.09 5.64 16.83C4.62 15.49 4 13.82 4 12C4 7.59 7.59 4 12 4C16.41 4 20 7.59 20 12C20 13.82 19.38 15.49 18.36 16.83V16.83ZM12 6C10.06 6 8.5 7.56 8.5 9.5C8.5 11.44 10.06 13 12 13C13.94 13 15.5 11.44 15.5 9.5C15.5 7.56 13.94 6 12 6ZM12 11C11.17 11 10.5 10.33 10.5 9.5C10.5 8.67 11.17 8 12 8C12.83 8 13.5 8.67 13.5 9.5C13.5 10.33 12.83 11 12 11Z" fill="white"/>
<path d="M7.07 18.28L6.61885 18.0644L6.44713 18.4239L6.75906 18.6716L7.07 18.28ZM16.93 18.28L17.2409 18.6716L17.55 18.4262L17.3831 18.0686L16.93 18.28ZM5.64 16.83L5.24215 17.1328L5.62497 17.6358L6.02629 17.1475L5.64 16.83ZM12 1.5C6.20386 1.5 1.5 6.20386 1.5 12H2.5C2.5 6.75614 6.75614 2.5 12 2.5V1.5ZM1.5 12C1.5 17.7961 6.20386 22.5 12 22.5V21.5C6.75614 21.5 2.5 17.2439 2.5 12H1.5ZM12 22.5C17.7961 22.5 22.5 17.7961 22.5 12H21.5C21.5 17.2439 17.2439 21.5 12 21.5V22.5ZM22.5 12C22.5 6.20386 17.7961 1.5 12 1.5V2.5C17.2439 2.5 21.5 6.75614 21.5 12H22.5ZM7.52115 18.4956C7.5662 18.4013 7.71102 18.2402 8.02179 18.0465C8.31751 17.8622 8.70851 17.6822 9.1574 17.5241C10.058 17.2068 11.1265 17 12 17V16C10.9935 16 9.81198 16.2332 8.8251 16.5809C8.33024 16.7553 7.86812 16.964 7.4929 17.1978C7.13273 17.4223 6.7888 17.7087 6.61885 18.0644L7.52115 18.4956ZM12 17C12.8736 17 13.9447 17.2068 14.8465 17.5242C15.2961 17.6823 15.6872 17.8623 15.9822 18.0464C16.2927 18.2401 16.4343 18.4001 16.4769 18.4914L17.3831 18.0686C17.2157 17.7099 16.8711 17.4224 16.5116 17.198C16.1366 16.964 15.6739 16.7552 15.1785 16.5808C14.1903 16.2332 13.0064 16 12 16V17ZM16.6191 17.8884C15.3442 18.9008 13.7429 19.5 12 19.5V20.5C13.9771 20.5 15.7958 19.8192 17.2409 18.6716L16.6191 17.8884ZM12 19.5C10.2571 19.5 8.65582 18.9008 7.38094 17.8884L6.75906 18.6716C8.20418 19.8192 10.0229 20.5 12 20.5V19.5ZM18.7463 16.5125C17.9353 15.5258 16.5926 14.9072 15.3336 14.5332C14.0611 14.1552 12.7807 14 12 14V15C12.6793 15 13.8639 15.1398 15.0489 15.4918C16.2474 15.8478 17.3547 16.3942 17.9737 17.1475L18.7463 16.5125ZM12 14C11.2193 14 9.9389 14.1552 8.66637 14.5332C7.40736 14.9072 6.06469 15.5258 5.25371 16.5125L6.02629 17.1475C6.64531 16.3942 7.75264 15.8478 8.95113 15.4918C10.1361 15.1398 11.3207 15 12 15V14ZM6.03785 16.5272C5.0801 15.2689 4.5 13.7041 4.5 12H3.5C3.5 13.9359 4.1599 15.7111 5.24215 17.1328L6.03785 16.5272ZM4.5 12C4.5 7.86614 7.86614 4.5 12 4.5V3.5C7.31386 3.5 3.5 7.31386 3.5 12H4.5ZM12 4.5C16.1339 4.5 19.5 7.86614 19.5 12H20.5C20.5 7.31386 16.6861 3.5 12 3.5V4.5ZM19.5 12C19.5 13.7041 18.9199 15.2689 17.9621 16.5272L18.7579 17.1328C19.8401 15.7111 20.5 13.9359 20.5 12H19.5ZM12 5.5C9.78386 5.5 8 7.28386 8 9.5H9C9 7.83614 10.3361 6.5 12 6.5V5.5ZM8 9.5C8 11.7161 9.78386 13.5 12 13.5V12.5C10.3361 12.5 9 11.1639 9 9.5H8ZM12 13.5C14.2161 13.5 16 11.7161 16 9.5H15C15 11.1639 13.6639 12.5 12 12.5V13.5ZM16 9.5C16 7.28386 14.2161 5.5 12 5.5V6.5C13.6639 6.5 15 7.83614 15 9.5H16ZM12 10.5C11.4461 10.5 11 10.0539 11 9.5H10C10 10.6061 10.8939 11.5 12 11.5V10.5ZM11 9.5C11 8.94614 11.4461 8.5 12 8.5V7.5C10.8939 7.5 10 8.39386 10 9.5H11ZM12 8.5C12.5539 8.5 13 8.94614 13 9.5H14C14 8.39386 13.1061 7.5 12 7.5V8.5ZM13 9.5C13 10.0539 12.5539 10.5 12 10.5V11.5C13.1061 11.5 14 10.6061 14 9.5H13Z" fill="white"/>
</mask>
<g mask="url(#mask0_1_50)">
</g>
</svg>
